<?xml version="1.0" standalone="no"?>
<!DOCTYPE svg PUBLIC "-//W3C//DTD SVG 20010904//EN"
 "http://www.w3.org/TR/2001/REC-SVG-20010904/DTD/svg10.dtd">
<svg version="1.0" xmlns="http://www.w3.org/2000/svg"
 width="8000.000000pt" height="5000.000000pt" viewBox="0 0 8000.000000 5000.000000"
 preserveAspectRatio="xMidYMid meet">
<metadata>
Created by potrace 1.16, written by Peter Selinger 2001-2019
</metadata>
<g transform="translate(0.000000,5000.000000) scale(0.100000,-0.100000)"
fill="#000000" stroke="none">
<path d="M40785 29010 c-3 -5 -2 -10 2 -10 5 0 9 -26 10 -57 1 -32 2 -68 2
-80 1 -23 2 -23 166 -23 115 0 165 3 165 11 0 8 6 7 18 -2 15 -12 16 -12 6 1
-14 18 -35 112 -23 105 9 -6 14 2 23 38 l6 27 -184 0 c-112 0 -187 -4 -191
-10z"/>
<path d="M41623 28138 c-2 -5 -1 -8 4 -8 15 0 14 -95 -2 -133 l-15 -37 190 0
190 0 0 90 0 89 -181 3 c-100 2 -183 0 -186 -4z m45 -58 c1 -23 -4 -52 -13
-68 -16 -26 -16 -26 -9 -2 4 14 8 41 9 60 5 65 9 68 13 10z"/>
<path d="M34702 26608 l29 -92 -25 -61 c-15 -33 -26 -63 -26 -67 0 -5 299 -8
664 -8 l664 0 -30 93 -30 94 31 66 30 67 -669 0 -668 0 30 -92z"/>
<path d="M33240 25020 l0 -160 334 0 334 0 -31 95 -30 95 27 59 c14 32 26 61
26 65 0 3 -148 6 -330 6 l-330 0 0 -160z"/>
<path d="M38890 24819 c0 -6 12 -49 26 -96 l26 -85 -26 -60 c-14 -32 -26 -64
-26 -69 0 -5 132 -9 330 -9 l330 0 0 165 0 165 -330 0 c-234 0 -330 -3 -330
-11z"/>
<path d="M33434 23755 c-250 -38 -417 -114 -471 -213 -56 -102 -57 -280 -2
-447 l32 -100 12 90 c29 221 108 253 367 147 215 -87 255 -90 326 -22 23 22
45 40 50 40 19 0 35 -59 41 -150 l6 -95 28 75 c33 90 57 198 57 261 0 56 -32
183 -59 237 -50 98 -115 142 -207 142 l-57 0 23 25 23 25 -44 -1 c-24 -1 -81
-7 -125 -14z"/>
<path d="M44029 22886 c-65 -17 -120 -67 -190 -168 -67 -97 -144 -166 -246
-220 -35 -18 -63 -36 -63 -40 0 -17 94 -60 161 -74 59 -13 101 -14 209 -7 158
9 194 7 226 -13 39 -26 66 -96 72 -191 7 -113 20 -128 102 -120 103 11 113
-24 48 -166 -37 -81 -42 -139 -15 -180 40 -61 138 -16 282 128 200 199 257
301 257 455 0 141 -41 217 -168 319 -143 116 -399 248 -534 277 -77 16 -82 16
-141 0z"/>
<path d="M59230 18740 l0 -3900 -170 0 -170 0 0 -1985 0 -1985 -4905 0 -4905
0 0 -185 0 -185 5365 0 5365 0 51 -105 c207 -426 574 -770 1006 -944 442 -179
899 -194 1348 -47 786 259 1324 1004 1325 1834 0 135 -14 274 -41 397 -10 49
-19 91 -19 92 0 2 47 1 105 -3 l105 -7 2 74 1 74 7 -65 c4 -36 8 -412 9 -836
l1 -771 23 -34 c62 -93 194 -84 241 16 16 32 17 105 13 868 -3 904 -3 890 -62
1116 -14 52 -24 95 -23 96 3 2 181 119 578 380 85 56 326 214 535 352 493 324
693 455 1245 818 250 164 466 307 479 317 23 17 18 17 -165 12 -104 -2 -616
-12 -1139 -20 -522 -9 -1139 -19 -1370 -23 -231 -5 -421 -7 -423 -6 -1 1 2 15
8 31 7 16 14 78 17 137 5 92 9 110 24 115 41 16 378 489 549 772 102 168 161
289 279 566 61 143 126 282 144 310 38 58 3 54 349 34 l227 -13 -30 -23 c-50
-37 -87 -95 -115 -179 -23 -70 -27 -96 -26 -205 0 -69 4 -145 9 -170 l9 -45
1442 -3 c793 -1 1442 0 1442 3 0 14 129 1654 160 2033 24 294 25 342 4 390
-31 75 -106 128 -193 139 -37 4 -66 -1 -134 -25 -280 -96 -498 -342 -626 -707
-32 -88 -32 -91 -21 -177 15 -117 18 -324 4 -338 -18 -19 -120 -49 -216 -65
-121 -20 -392 -19 -545 0 -242 31 -484 106 -636 196 -39 23 -101 71 -135 106
-52 51 -70 63 -96 63 -17 0 -130 -11 -251 -25 -597 -67 -971 -144 -1098 -225
-150 -95 -388 -604 -667 -1425 -114 -338 -300 -935 -303 -977 -4 -49 -160
-128 -334 -169 -49 -11 -98 -27 -111 -35 -21 -14 -62 -70 -62 -86 0 -4 24 -8
53 -10 28 -2 -85 -6 -253 -10 -676 -17 -940 -20 -940 -12 0 5 243 585 539
1289 l539 1280 224 16 c237 18 303 28 408 61 209 67 416 226 535 412 63 100
136 252 143 300 l7 48 60 -147 c71 -173 88 -195 155 -195 38 0 53 5 74 26 46
47 39 80 -88 385 l-115 274 -69 -3 c-95 -5 -136 13 -161 71 -11 25 -24 48 -30
51 -27 17 -6 25 52 21 l62 -4 -47 11 c-27 6 -48 15 -48 18 0 9 116 60 135 60
9 0 -1 32 -30 103 -24 56 -73 174 -110 262 -40 96 -76 169 -91 183 -27 24 -90
30 -125 12 -23 -13 -49 -61 -49 -91 0 -12 45 -130 101 -263 56 -132 103 -247
106 -253 3 -7 -17 0 -43 15 -48 26 -53 27 -255 32 l-206 5 502 1190 c276 655
516 1219 534 1255 298 582 884 984 1546 1060 57 6 579 10 1435 10 1171 0 1353
-2 1410 -16 217 -51 395 -225 450 -439 20 -77 20 -112 20 -3262 l0 -3183 255
0 255 0 -2 3233 -3 3232 -26 96 c-38 134 -80 230 -148 336 -181 279 -472 462
-801 503 -70 8 -465 10 -1485 8 -1502 -4 -1428 -2 -1690 -58 -344 -74 -734
-261 -1015 -487 -258 -206 -489 -488 -643 -783 -56 -107 -70 -140 -357 -820
-89 -212 -254 -601 -365 -865 -224 -529 -745 -1765 -890 -2110 -51 -121 -165
-391 -253 -600 -88 -209 -384 -908 -656 -1554 -273 -646 -502 -1178 -508
-1183 -7 -4 -19 -8 -25 -8 -10 0 -13 912 -13 4525 l0 4525 -770 0 -770 0 0
-3900z m1980 -5414 c0 -34 3 -90 6 -124 l7 -61 -29 -6 c-88 -19 -222 -61 -316
-99 l-108 -43 0 151 0 152 103 27 c122 33 271 65 310 66 27 1 27 0 27 -63z"/>
<path d="M32806 22139 c-22 -5 -42 -11 -44 -14 -2 -2 19 -39 48 -82 105 -158
208 -403 251 -593 26 -117 26 -116 -25 -139 -55 -24 -101 -84 -115 -151 -6
-27 -11 -116 -10 -197 0 -469 -120 -867 -291 -965 -32 -19 -40 -29 -41 -53 0
-16 0 -138 1 -270 1 -215 -12 -635 -25 -835 -9 -141 -19 -365 -16 -378 1 -7
27 -51 58 -98 73 -112 123 -210 123 -239 0 -32 -76 -97 -164 -141 l-71 -35 8
-407 c8 -411 -3 -883 -23 -987 -6 -27 -35 -111 -66 -187 -30 -76 -64 -179 -74
-231 -23 -113 -48 -335 -60 -529 -8 -143 -6 -1042 3 -1108 3 -19 8 -80 12
-135 7 -121 31 -326 46 -397 7 -30 21 -60 34 -72 21 -20 24 -31 27 -147 2 -99
7 -131 21 -152 l17 -27 556 0 556 0 -19 32 c-30 51 -74 74 -196 102 -126 30
-247 79 -324 132 -51 35 -52 36 -36 60 10 16 21 83 34 208 24 241 62 535 100
771 28 175 126 727 133 750 1 5 8 -58 15 -140 46 -569 193 -1383 285 -1580 19
-42 24 -68 25 -154 0 -77 5 -113 18 -140 l18 -36 558 -3 559 -2 -19 31 c-30
52 -66 71 -204 105 -140 36 -286 99 -349 153 l-35 30 24 17 c46 33 49 58 39
339 -30 817 69 2236 262 3775 54 431 58 587 30 1190 -14 314 -17 471 -26 1325
l-7 749 -23 23 c-15 15 -35 23 -58 23 -34 0 -35 1 -41 48 -28 200 -100 390
-243 634 l-57 97 -88 22 c-48 12 -90 19 -93 17 -2 -3 16 -41 42 -84 65 -110
119 -229 164 -365 38 -114 80 -293 80 -343 l0 -26 -415 0 -414 0 -6 38 c-13
79 -18 99 -42 177 -46 148 -151 339 -286 523 -65 87 -67 88 -141 71z"/>
<path d="M15370 21692 c-25 -1 -103 -12 -175 -23 -214 -34 -362 -90 -439 -165
-74 -72 -125 -228 -110 -333 16 -110 124 -367 197 -468 17 -25 51 -56 75 -70
39 -23 44 -24 66 -10 46 30 57 75 50 194 -6 98 -5 110 13 132 l20 25 51 -22
c89 -39 113 -29 146 61 26 70 77 138 121 161 l39 20 70 -26 c39 -15 110 -43
157 -62 112 -47 218 -64 293 -47 l55 12 -67 84 c-82 101 -113 161 -148 280
-14 49 -34 106 -44 126 -26 50 -91 104 -143 118 -43 12 -147 18 -227 13z"/>
<path d="M11750 21607 c0 -5 -8 -6 -17 -3 -16 5 -18 -2 -15 -78 3 -69 6 -85
20 -88 9 -2 92 -5 185 -7 l167 -3 -10 26 c-5 14 -17 37 -26 51 -18 27 -10 50
7 25 9 -12 10 -10 6 7 -3 12 -1 23 3 25 4 2 10 13 14 25 l7 22 -170 3 c-94 2
-171 -1 -171 -5z"/>
<path d="M44215 21224 c-186 -92 -238 -100 -400 -62 l-94 21 -78 -70 c-101
-92 -186 -181 -253 -266 -37 -48 -56 -65 -63 -58 -8 8 -146 11 -424 11 l-413
0 0 -725 c0 -683 1 -725 18 -726 42 -2 -197 -60 -858 -208 -124 -28 -235 -53
-248 -56 -57 -14 -66 -135 -19 -238 l24 -54 138 -6 c212 -11 769 -8 933 3 179
13 372 43 455 71 121 40 398 204 927 547 85 55 127 77 131 69 4 -7 46 -117 93
-246 48 -129 99 -256 113 -284 67 -123 194 -219 338 -257 57 -14 105 -13 105
3 0 15 41 343 65 527 81 603 79 1097 -4 1421 -56 219 -153 419 -260 542 l-33
37 -151 -122 c-186 -148 -642 -602 -631 -627 21 -51 17 -62 -43 -124 -33 -34
-143 -154 -245 -267 -102 -113 -196 -214 -209 -225 l-23 -20 16 26 c9 15 17
35 17 45 -1 11 15 141 35 289 20 149 39 294 42 323 4 32 12 52 19 52 7 0 62
-11 121 -25 l107 -26 241 239 c267 264 433 401 601 494 87 48 25 29 -90 -28z
m-910 -483 c3 -5 2 -12 -3 -15 -5 -3 -9 1 -9 9 0 17 3 19 12 6z m-45 -92 c-16
-30 -30 -51 -30 -48 0 10 24 61 40 86 26 41 20 17 -10 -38z m-215 -889 c-3 -5
-11 -10 -16 -10 -6 0 -7 5 -4 10 3 6 11 10 16 10 6 0 7 -4 4 -10z m-70 -70
c-21 -22 -42 -40 -46 -40 -4 0 11 18 33 40 23 22 44 40 47 40 3 0 -13 -18 -34
-40z m-55 -54 c0 -2 -8 -10 -17 -17 -16 -13 -17 -12 -4 4 13 16 21 21 21 13z
m-75 -56 c3 -6 -1 -7 -9 -4 -9 3 -16 2 -16 -4 0 -6 6 -13 13 -15 9 -4 9 -6 0
-6 -15 -1 -26 16 -18 29 8 13 22 13 30 0z m-120 -140 c-3 -5 -20 -19 -38 -30
-27 -18 -29 -19 -10 -2 12 11 19 23 15 27 -4 5 -2 5 5 1 6 -3 14 -2 18 4 3 5
8 10 11 10 3 0 3 -4 -1 -10z m-128 -76 c-3 -3 -12 -4 -19 -1 -8 3 -5 6 6 6 11
1 17 -2 13 -5z m-40 -10 c-3 -3 -12 -4 -19 -1 -8 3 -5 6 6 6 11 1 17 -2 13 -5z"/>
<path d="M12550 20730 c0 -6 6 -23 14 -38 15 -30 15 -54 -2 -95 -7 -16 -12
-34 -11 -40 0 -7 4 -3 9 8 7 17 9 17 9 3 1 -10 5 -18 10 -18 5 0 12 8 14 18 4
16 5 16 6 0 1 -16 15 -18 156 -18 l155 0 0 79 c0 44 3 86 6 95 5 14 -14 16
-180 16 -123 0 -186 -4 -186 -10z m47 -112 c-3 -7 -5 -2 -5 12 0 14 2 19 5 13
2 -7 2 -19 0 -25z"/>
<path d="M65768 20656 c-64 -8 -141 -19 -170 -26 -221 -53 -317 -189 -243
-347 34 -73 65 -103 110 -103 20 0 91 18 157 41 224 75 272 58 373 -128 35
-66 60 -76 91 -35 28 36 59 46 79 25 12 -11 15 -36 14 -97 -1 -85 7 -112 51
-166 l20 -25 45 50 c25 28 54 66 64 85 68 130 120 437 88 527 -13 39 -13 42 7
51 l21 11 -22 0 c-16 1 -27 13 -42 45 -10 24 -29 50 -41 56 -20 11 -21 10 -10
-11 l12 -22 -33 21 c-19 11 -59 28 -89 37 -75 23 -328 28 -482 11z"/>
<path d="M14872 20188 c82 -90 259 -370 348 -553 82 -169 148 -309 180 -381
15 -35 5 -32 190 -50 36 -4 66 -7 67 -8 3 -2 -144 -687 -149 -691 -2 -2 -58
123 -123 278 -65 155 -131 309 -145 343 -27 59 -27 61 -9 83 11 13 19 29 19
35 0 17 -128 305 -205 461 -68 137 -273 476 -291 482 -22 7 -170 -103 -260
-192 -215 -213 -346 -450 -494 -895 -77 -231 -127 -426 -199 -775 -27 -132
-60 -288 -74 -347 l-24 -108 36 -10 c56 -15 200 -12 262 6 139 41 198 91 389
324 84 102 162 195 174 208 l23 23 194 -248 c329 -422 499 -620 591 -690 108
-83 359 -204 643 -311 156 -58 541 -187 698 -232 l78 -23 38 37 c66 64 99 154
78 212 -7 21 0 19 127 -21 199 -64 192 -63 233 -24 48 47 83 119 83 171 0 24
-4 48 -8 54 -4 5 -194 127 -422 269 -491 306 -659 415 -681 441 -50 58 -260
516 -481 1049 -39 94 -83 195 -98 225 -15 30 -40 95 -55 144 -35 118 -88 238
-158 362 l-56 101 -79 7 c-96 8 -171 29 -226 63 -22 14 -86 70 -142 124 -104
102 -141 131 -72 57z"/>
<path d="M54704 19316 c-9 -23 1 -379 11 -400 6 -15 5 -17 -5 -11 -9 5 -11 4
-6 -3 5 -9 128 -12 457 -12 247 0 449 3 449 6 0 15 -54 141 -67 156 -11 12
-12 21 -4 37 17 31 13 49 -6 26 -16 -20 -16 -16 4 32 4 11 3 14 -5 9 -8 -5
-10 -1 -5 10 4 11 8 13 11 6 2 -7 8 -10 13 -7 5 4 6 -1 3 -9 -3 -9 -4 -16 -1
-16 6 0 49 136 52 168 l3 22 -449 0 c-381 0 -450 -2 -455 -14z"/>
<path d="M9650 19278 c0 -6 12 -49 27 -94 l26 -82 -26 -62 c-15 -34 -27 -66
-27 -71 0 -9 652 -14 661 -5 2 2 3 77 1 165 l-3 161 -329 0 c-249 0 -330 -3
-330 -12z"/>
<path d="M8210 17610 l0 -160 330 0 c182 0 330 3 330 7 0 3 -12 46 -26 94
l-27 89 27 59 c14 32 26 61 26 65 0 3 -148 6 -330 6 l-330 0 0 -160z"/>
<path d="M56690 17230 c0 -5 7 -15 15 -23 8 -8 11 -17 8 -21 -3 -3 -1 -11 5
-19 6 -7 18 -34 27 -61 16 -45 15 -51 -4 -114 -11 -37 -21 -80 -23 -97 -2 -16
-9 -36 -15 -43 -15 -16 -17 -52 -4 -52 5 0 12 10 14 23 l4 22 2 -22 1 -23 435
0 435 0 0 220 0 220 -450 0 c-256 -1 -450 -5 -450 -10z"/>
<path d="M17218 17030 c34 -25 42 -36 48 -76 9 -61 -2 -174 -22 -223 -38 -97
-107 -70 -222 86 -35 48 -55 66 -81 73 -54 15 -58 13 -65 -25 -16 -82 37 -181
118 -219 l51 -25 425 -2 c477 -3 465 -5 532 69 45 50 61 99 56 172 -5 74 -40
129 -105 167 -42 24 -60 28 -148 31 l-100 4 -12 -94 c-12 -107 -32 -155 -67
-164 -46 -11 -90 24 -180 143 -31 42 -56 65 -74 69 -15 3 -52 14 -83 25 -31
10 -69 19 -84 19 -28 0 -28 0 13 -30z"/>
<path d="M23258 16809 c-3 -8 1 -33 8 -56 11 -36 11 -49 -1 -77 l-14 -34 190
-1 190 -2 -3 88 -3 88 -172 3 c-135 2 -173 0 -173 -10 0 -10 -2 -10 -9 1 -7
11 -9 11 -13 0z"/>
<path d="M22440 15929 c0 -5 -3 -8 -7 -6 -5 3 -7 -33 -5 -79 l3 -84 177 2
c163 3 177 4 180 22 3 13 0 16 -9 11 -7 -5 -10 -4 -5 3 3 6 2 22 -4 36 -6 16
-6 35 0 50 6 17 5 26 -3 30 -7 2 -4 5 6 5 9 1 17 6 17 11 0 6 -58 10 -155 10
-97 0 -155 -4 -155 -10 0 -5 -7 -10 -16 -10 -8 0 -12 5 -9 10 3 6 1 10 -4 10
-6 0 -11 -5 -11 -11z m310 -69 c0 -11 -4 -20 -9 -20 -5 0 -7 9 -4 20 3 11 7
20 9 20 2 0 4 -9 4 -20z"/>
<path d="M55779 14552 l-437 -2 -6 -23 c-3 -12 -5 -67 -4 -122 l2 -100 6 90
c5 79 6 70 8 -73 1 -107 -1 -161 -8 -157 -6 4 -10 -5 -10 -20 l0 -25 454 0
454 1 -21 43 c-12 24 -26 43 -32 42 -5 -2 -7 -1 -2 1 11 7 8 31 -8 63 -13 26
-12 35 15 121 17 51 30 102 30 114 0 11 5 26 11 32 7 7 7 11 -3 14 -7 2 -209
3 -449 1z m426 -42 c-3 -5 -16 -10 -28 -9 -20 1 -20 2 3 9 14 4 26 8 28 9 2 1
0 -3 -3 -9z"/>
<path d="M45735 13080 c-33 -22 -106 -63 -161 -90 l-102 -49 -4 -168 c-4 -144
-8 -176 -28 -227 -29 -77 -80 -126 -151 -149 -69 -21 -91 -44 -87 -89 l3 -33
200 -3 c178 -2 204 0 235 16 47 25 96 100 110 170 17 80 42 125 121 215 106
123 119 169 75 262 -23 49 -129 185 -144 185 -4 0 -34 -19 -67 -40z"/>
<path d="M69349 12744 c-264 -47 -499 -173 -700 -373 -164 -165 -267 -331
-339 -550 -61 -183 -70 -262 -70 -592 0 -340 -12 -445 -65 -571 -7 -17 11 -18
289 -18 163 0 296 -3 296 -6 0 -3 9 -50 20 -104 110 -542 497 -978 1020 -1149
651 -213 1361 31 1741 597 361 539 346 1238 -38 1760 -180 244 -482 462 -750
542 l-83 25 0 228 0 227 -622 -1 c-481 -1 -640 -4 -699 -15z"/>
<path d="M43300 12677 c0 -23 -64 -105 -111 -141 -81 -63 -200 -114 -332 -142
-84 -17 -138 -46 -160 -84 -10 -15 -17 -31 -17 -34 0 -3 223 -6 495 -6 l494 0
17 33 c19 36 31 205 20 279 l-7 45 -77 -5 c-87 -4 -196 15 -263 47 -50 25 -59
26 -59 8z"/>
<path d="M17830 12471 c-130 -25 -270 -100 -370 -200 -147 -147 -220 -339
-207 -545 30 -477 498 -788 950 -631 103 35 173 81 262 170 93 93 135 160 178
282 28 80 31 99 31 213 0 173 -28 265 -121 407 -87 133 -216 230 -368 279 -62
20 -105 27 -195 30 -63 1 -135 -1 -160 -5z"/>
<path d="M57310 12460 c0 -6 11 -32 25 -58 14 -26 25 -54 25 -64 0 -9 5 -20
11 -24 6 -3 9 -22 7 -40 -2 -19 0 -34 4 -34 4 0 8 -9 8 -20 0 -11 -6 -20 -13
-20 -19 0 -37 -43 -30 -71 4 -13 2 -20 -4 -16 -8 5 -33 -53 -33 -77 0 -8 813
-8 863 0 l37 7 0 213 0 214 -450 0 c-306 0 -450 -3 -450 -10z m50 -370 c0 -5
-5 -10 -11 -10 -5 0 -7 5 -4 10 3 6 8 10 11 10 2 0 4 -4 4 -10z"/>
<path d="M12150 11933 c-79 -89 -113 -149 -118 -207 -5 -67 7 -91 103 -203 74
-86 89 -115 119 -224 19 -67 50 -116 96 -146 33 -23 39 -23 239 -21 l206 3 3
32 c4 42 -31 76 -93 92 -61 15 -107 59 -141 133 -27 60 -29 71 -32 235 l-4
173 -93 44 c-51 24 -125 65 -164 90 -40 25 -73 46 -75 46 -3 0 -23 -21 -46
-47z"/>
<path d="M26316 11534 c-18 -69 28 -221 90 -304 99 -130 272 -200 429 -171
218 40 374 224 375 444 l0 57 -444 0 -444 0 -6 -26z"/>
<path d="M14640 11529 c-59 -31 -173 -51 -261 -47 -97 4 -92 12 -88 -170 3
-101 8 -134 22 -155 l17 -27 496 0 496 0 -19 31 c-29 51 -61 68 -186 98 -153
38 -267 94 -340 165 -30 30 -61 71 -68 90 -15 40 -20 41 -69 15z"/>
</g>
</svg>
