<?xml version="1.0" standalone="no"?>
<!DOCTYPE svg PUBLIC "-//W3C//DTD SVG 20010904//EN"
 "http://www.w3.org/TR/2001/REC-SVG-20010904/DTD/svg10.dtd">
<svg version="1.0" xmlns="http://www.w3.org/2000/svg"
 width="7500.000000pt" height="5000.000000pt" viewBox="0 0 7500.000000 5000.000000"
 preserveAspectRatio="xMidYMid meet">
<metadata>
Created by potrace 1.16, written by Peter Selinger 2001-2019
</metadata>
<g transform="translate(0.000000,5000.000000) scale(0.100000,-0.100000)"
fill="#000000" stroke="none">
<path d="M56202 38360 c0 -14 2 -19 5 -12 2 6 2 18 0 25 -3 6 -5 1 -5 -13z"/>
<path d="M54761 38104 c0 -11 3 -14 6 -6 3 7 2 16 -1 19 -3 4 -6 -2 -5 -13z"/>
<path d="M56164 37845 c0 -55 1 -76 3 -47 2 29 2 74 0 100 -2 26 -3 2 -3 -53z"/>
<path d="M56011 37874 c0 -11 3 -14 6 -6 3 7 2 16 -1 19 -3 4 -6 -2 -5 -13z"/>
<path d="M56164 37600 c0 -58 1 -81 3 -52 2 28 2 76 0 105 -2 28 -3 5 -3 -53z"/>
<path d="M55993 37610 c0 -25 2 -35 4 -22 2 12 2 32 0 45 -2 12 -4 2 -4 -23z"/>
<path d="M54882 37460 c0 -14 2 -19 5 -12 2 6 2 18 0 25 -3 6 -5 1 -5 -13z"/>
<path d="M56601 37405 c7 -7 400 -7 407 -1 3 3 -88 6 -203 6 -115 0 -206 -2
-204 -5z"/>
<path d="M56760 37334 c-118 -23 -214 -45 -213 -50 1 -5 14 -36 27 -70 48
-116 60 -222 59 -509 -1 -177 -6 -293 -17 -365 -9 -58 -27 -199 -41 -315 -14
-115 -32 -237 -41 -270 -19 -76 -63 -170 -99 -213 -90 -106 -461 -280 -637
-299 l-58 -6 0 28 c0 15 17 64 37 109 57 123 49 180 -32 234 -110 74 -391 90
-576 33 -127 -40 -153 -108 -92 -241 56 -123 52 -150 -22 -150 -89 0 -424 83
-538 134 -161 71 -281 439 -315 969 -15 218 7 777 33 863 7 24 12 44 11 44 -6
0 -293 59 -318 65 l-28 7 0 -75 c0 -102 25 -288 57 -422 37 -157 85 -289 164
-454 l69 -144 10 -208 c22 -468 84 -710 213 -843 64 -65 145 -107 416 -217
361 -146 496 -226 524 -310 l13 -36 259 119 c143 65 369 172 502 238 200 99
251 129 302 176 118 109 153 227 166 554 3 85 11 236 17 335 11 163 14 183 36
215 40 58 136 257 186 384 91 229 150 500 144 656 l-3 75 -215 -41z"/>
<path d="M19598 37041 c-130 -65 -229 -132 -315 -214 -40 -38 -86 -72 -105
-77 -44 -13 -178 -13 -275 1 -220 30 -615 166 -766 262 l-55 36 -31 -127
c-112 -468 -79 -972 84 -1270 97 -177 204 -244 350 -220 88 15 133 1 195 -61
63 -63 107 -152 141 -281 l12 -45 8 30 c5 17 11 39 13 50 3 11 13 52 24 92 11
40 18 74 16 75 -1 2 -6 19 -9 37 -3 19 -8 38 -11 43 -6 10 -6 196 0 243 2 17
13 73 25 125 12 52 24 106 27 120 3 14 7 33 10 42 8 26 15 58 28 123 11 55 15
60 37 58 61 -5 139 -15 188 -24 75 -13 380 -11 438 2 148 34 343 114 463 190
l35 23 -25 -29 c-122 -138 -577 -472 -815 -598 -87 -47 138 13 295 77 204 84
345 172 565 352 139 113 469 454 454 468 -2 2 -51 25 -109 51 -131 58 -324
158 -432 226 -98 61 -293 206 -327 243 -14 14 -27 26 -30 26 -3 0 -49 -22
-103 -49z"/>
<path d="M20998 36723 c7 -3 16 -2 19 1 4 3 -2 6 -13 5 -11 0 -14 -3 -6 -6z"/>
<path d="M21217 36268 c-6 -72 -12 -390 -9 -478 3 -80 15 -137 36 -179 24 -46
50 -56 76 -29 33 36 125 195 187 324 57 118 135 332 126 347 -2 4 -13 7 -24 7
-18 0 -309 60 -365 76 -20 5 -22 1 -27 -68z"/>
<path d="M54115 34005 c-5 -2 -131 -32 -279 -66 l-270 -63 -30 -44 c-145 -204
-475 -811 -569 -1044 -14 -35 -44 -108 -67 -163 -51 -125 -151 -419 -184 -545
-25 -94 -31 -122 -42 -190 -3 -19 -8 -38 -10 -42 -5 -8 -33 -203 -40 -278 -9
-103 -2 -97 -106 -102 -83 -4 -99 -9 -145 -37 -47 -29 -112 -106 -114 -135 0
-6 -2 -20 -5 -31 -2 -11 -6 -402 -9 -870 -7 -1175 -24 -2709 -35 -3265 -5
-256 -10 -532 -10 -615 -2 -526 -55 -1924 -101 -2635 -16 -249 -19 -377 -14
-545 19 -691 56 -1159 146 -1870 280 -2212 457 -3883 604 -5685 107 -1326 173
-2470 217 -3795 18 -541 17 -2099 -2 -2555 -21 -520 -21 -553 12 -616 15 -28
50 -72 79 -98 l53 -47 -30 -24 c-298 -244 -743 -433 -1232 -525 -145 -27 -231
-53 -314 -97 -72 -37 -175 -124 -197 -167 l-14 -26 -2396 1 -2396 0 85 25
c357 105 696 387 917 763 142 240 231 505 285 846 19 123 16 503 -5 649 -123
829 -638 1459 -1315 1607 -83 18 -140 22 -394 26 l-298 5 0 1314 0 1314 778 0
c427 0 841 3 918 7 l142 6 6 671 c3 369 9 1793 12 3165 l6 2494 -931 -5 -931
-5 0 2042 c0 2002 0 2043 20 2121 11 43 41 122 67 174 40 81 62 109 148 195
104 104 190 163 280 191 l50 16 59 -36 c33 -20 73 -38 90 -41 17 -3 429 -4
916 -3 l885 3 48 25 c103 52 161 149 162 270 0 60 -19 160 -31 160 -1 0 -35
-19 -76 -42 -143 -81 -304 -146 -400 -163 -52 -8 -113 10 -138 43 -23 29 -23
23 -4 223 11 119 53 109 -454 108 -240 -1 -545 -4 -677 -8 -234 -7 -241 -7
-291 -33 -29 -15 -71 -49 -95 -76 -38 -42 -54 -52 -116 -71 -343 -102 -643
-393 -757 -733 -61 -180 -59 -153 -63 -910 l-4 -698 -2435 0 -2434 0 0 663 c0
758 -2 739 87 917 40 81 62 109 148 195 104 104 190 163 280 191 l50 16 59
-36 c33 -20 73 -38 90 -41 17 -3 429 -4 916 -3 l885 3 48 25 c58 29 112 86
141 149 30 66 29 197 -3 263 -30 62 -85 118 -147 148 l-49 25 -900 0 -900 0
-51 -27 c-29 -15 -71 -49 -95 -76 -38 -42 -54 -52 -116 -71 -343 -102 -643
-393 -757 -733 -65 -192 -60 -3 -63 -2300 l-3 -2088 137 0 c76 0 162 3 191 6
l52 7 0 1198 0 1199 2435 0 2435 0 0 -1195 0 -1195 -680 0 -680 0 5 -2122 c3
-1168 7 -2594 10 -3170 l5 -1048 -493 0 c-272 0 -630 -3 -796 -7 l-303 -6 8
-2775 7 -2775 -3194 6 c-3114 6 -3195 6 -3236 -13 -81 -36 -130 -143 -103
-225 14 -44 62 -100 101 -120 23 -13 224 -15 1376 -15 l1348 0 34 -42 c76 -94
280 -286 369 -346 113 -77 288 -163 402 -196 l85 -25 -4363 0 -4362 -1 5 468
c3 257 7 1678 10 3158 l5 2692 -162 6 c-90 4 -890 8 -1779 9 l-1616 2 -6 -629
c-4 -346 -7 -860 -7 -1143 l0 -513 523 0 c287 0 649 0 804 0 157 0 284 -3 287
-8 3 -5 3 -917 -1 -2026 l-6 -2016 -1845 0 -1844 0 6 268 c9 405 19 3746 11
3770 l-6 22 -1138 0 -1138 0 -6 -572 c-4 -314 -7 -1213 -7 -1998 0 -785 -3
-1442 -6 -1459 l-6 -31 -532 0 -531 0 -29 63 c-56 121 -191 219 -393 288 -48
16 -179 50 -292 75 -273 61 -291 69 -398 163 -120 108 -670 700 -717 773 -24
38 -257 1164 -395 1908 -356 1918 -527 3377 -508 4335 8 397 7 388 127 1080
82 470 156 1017 209 1550 156 1558 141 3146 -44 4625 -13 107 -38 328 -55 490
-60 573 -141 1193 -210 1595 -37 218 -66 364 -72 370 -2 2 -31 0 -63 -5 -162
-26 -683 -35 -940 -15 -27 2 -90 6 -140 10 -49 3 -130 10 -180 15 -49 5 -115
12 -145 14 -167 15 -267 25 -280 30 -8 3 -44 7 -80 11 -91 7 -160 16 -230 29
-19 3 -53 8 -75 10 -22 2 -51 7 -65 10 -14 3 -43 7 -65 10 -52 6 -185 27 -270
41 -11 2 -38 6 -60 10 -22 3 -51 7 -65 10 -60 13 -78 16 -240 45 -58 11 -116
21 -130 24 -14 3 -45 10 -70 15 -25 5 -54 12 -65 14 -11 3 -33 8 -50 12 -71
15 -113 24 -155 34 -25 5 -70 15 -100 22 -97 22 -362 89 -450 115 -47 14 -116
34 -155 46 -319 92 -627 220 -757 313 l-46 34 -15 -22 c-29 -45 -119 -232
-164 -341 -253 -616 -346 -1274 -299 -2126 22 -407 39 -813 91 -2220 123
-3321 158 -3950 280 -5027 14 -130 21 -223 16 -240 -5 -16 -38 -80 -73 -143
-819 -1445 -1068 -3398 -722 -5685 30 -200 93 -555 129 -724 35 -163 41 -284
20 -386 -21 -101 -61 -187 -159 -344 -185 -295 -235 -462 -236 -783 l0 -128
-4304 -2 c-4216 -3 -4304 -3 -4325 -22 -29 -26 -30 -107 -1 -136 20 -20 33
-20 32850 -20 32817 0 32830 0 32850 20 29 29 28 110 -1 136 -21 19 -136 19
-5961 22 -5649 2 -5940 3 -5933 20 43 108 70 366 63 604 l-4 150 52 35 c62 41
81 81 119 248 87 385 156 1144 206 2250 17 378 23 1656 10 2070 -33 1073 -114
1890 -245 2473 -35 153 -49 193 -221 607 -117 281 -173 461 -189 610 -17 148
-32 332 -47 585 -16 272 -23 1784 -10 2430 6 316 14 715 17 885 l6 310 -98 40
c-103 42 -303 152 -389 213 -154 111 -225 195 -225 268 0 116 139 379 432 818
l139 209 -25 456 c-86 1520 -119 2510 -115 3471 1 366 -1 677 -5 692 -5 18
-24 37 -54 54 -487 280 -795 1001 -922 2154 -25 229 -28 263 -36 375 -3 50 -8
106 -9 125 -3 34 -13 472 -19 800 -2 151 -5 172 -30 245 -70 201 -228 358
-416 415 -55 16 -55 17 -54 56 1 56 42 263 85 429 11 44 22 87 25 95 5 21 20
76 37 140 35 125 153 458 219 615 150 360 389 789 596 1070 42 57 42 59 22 67
-18 7 -241 54 -337 71 -31 6 -35 2 -121 -106 -292 -370 -565 -795 -750 -1167
-54 -107 -106 -215 -116 -240 -11 -25 -29 -68 -42 -95 -23 -54 -122 -340 -129
-374 -3 -19 -25 -105 -46 -181 -11 -41 -15 -65 -30 -180 -6 -47 -13 -92 -14
-100 -2 -8 -4 -27 -4 -42 l-1 -28 -1278 0 c-703 0 -1281 2 -1284 5 -3 3 -2 25
2 48 4 23 11 70 14 104 4 35 8 68 11 75 2 7 7 31 10 53 6 44 39 215 55 285 6
25 12 54 15 65 2 11 11 45 19 77 8 31 17 67 20 80 5 25 43 160 77 273 11 39
38 118 60 177 21 59 39 114 39 122 0 8 5 18 10 21 6 3 10 12 10 20 0 7 36 99
80 204 126 299 266 571 410 801 82 131 82 130 78 129 -2 0 -7 -2 -13 -4z
m-37057 -17147 l108 -614 -23 -105 c-101 -472 -109 -1076 -22 -1674 175 -1210
696 -2626 1528 -4153 199 -365 462 -814 641 -1097 123 -193 173 -321 172 -437
0 -84 -19 -143 -94 -288 -88 -172 -102 -234 -102 -467 l-1 -193 -1597 0 -1597
0 -24 53 c-49 106 -133 182 -272 248 -102 47 -208 79 -415 124 -284 61 -305
71 -410 182 -89 93 -185 219 -306 403 -49 74 -92 137 -96 140 -7 6 -10 -6 158
835 400 2013 755 3513 1051 4445 127 401 227 644 357 868 273 471 542 1215
782 2159 27 105 50 190 52 188 2 -1 51 -279 110 -617z m38906 -3180 c337
-1755 569 -3310 686 -4598 29 -316 32 -338 59 -393 l28 -57 -66 -49 c-245
-181 -648 -352 -1011 -431 -279 -59 -353 -79 -424 -113 -86 -41 -164 -102
-208 -162 l-33 -44 -69 -1 c-61 0 -67 2 -61 18 40 93 65 309 65 558 l0 162 34
57 c198 328 573 2140 776 3750 65 520 117 1041 141 1413 7 105 16 192 19 192
3 0 32 -136 64 -302z m-9452 -2682 c165 -42 312 -128 443 -260 385 -387 484
-1060 235 -1584 -69 -143 -130 -232 -235 -338 -192 -195 -399 -287 -645 -287
-243 0 -459 92 -641 273 -169 168 -286 383 -345 637 -37 160 -44 421 -16 588
75 440 328 788 679 935 154 65 357 79 525 36z m-2128 -2583 c114 -147 253
-278 401 -375 122 -81 205 -122 344 -169 l116 -39 -2050 0 -2050 0 105 36
c270 91 521 264 700 482 l75 91 1169 1 1168 0 22 -27z"/>
<path d="M15935 31235 c8 -74 17 -115 26 -115 5 0 7 11 3 25 -31 125 -33 131
-29 90z"/>
<path d="M15932 31140 c0 -14 2 -19 5 -12 2 6 2 18 0 25 -3 6 -5 1 -5 -13z"/>
<path d="M15970 31075 c4 -20 11 -40 15 -43 10 -10 -5 61 -15 72 -5 5 -5 -8 0
-29z"/>
<path d="M15991 31004 c0 -11 3 -14 6 -6 3 7 2 16 -1 19 -3 4 -6 -2 -5 -13z"/>
<path d="M16002 30949 c6 -16 12 -29 13 -27 6 6 -8 58 -16 58 -4 0 -3 -14 3
-31z"/>
<path d="M16004 30888 c-4 -6 -3 -8 4 -4 5 3 13 0 15 -6 3 -8 6 -6 6 5 1 19
-14 23 -25 5z"/>
<path d="M16031 30850 c0 -8 4 -24 9 -35 5 -13 9 -14 9 -5 0 8 -4 24 -9 35 -5
13 -9 14 -9 5z"/>
<path d="M16050 30751 c0 -5 5 -13 10 -16 6 -3 10 -2 10 4 0 5 -4 13 -10 16
-5 3 -10 2 -10 -4z"/>
<path d="M16071 30704 c0 -11 3 -14 6 -6 3 7 2 16 -1 19 -3 4 -6 -2 -5 -13z"/>
<path d="M16094 30618 c0 -21 5 -33 10 -28 4 4 4 21 -2 37 -10 28 -10 28 -8
-9z"/>
<path d="M16112 30570 c0 -8 6 -31 13 -50 7 -19 13 -28 13 -20 0 8 -6 31 -13
50 -7 19 -13 28 -13 20z"/>
<path d="M15924 30375 c0 -60 1 -84 3 -52 2 32 2 81 0 110 -2 29 -3 3 -3 -58z"/>
<path d="M16151 30444 c-1 -6 4 -26 10 -45 6 -19 13 -40 15 -48 3 -8 7 -12 9
-9 3 2 -4 29 -14 59 -11 30 -20 49 -20 43z"/>
<path d="M16201 30280 c0 -8 6 -28 14 -45 17 -39 18 -21 0 25 -7 19 -14 28
-14 20z"/>
<path d="M16231 30190 c0 -8 4 -22 9 -30 12 -18 12 -2 0 25 -6 13 -9 15 -9 5z"/>
<path d="M15913 30065 c0 -38 2 -53 4 -32 2 20 2 52 0 70 -2 17 -4 1 -4 -38z"/>
<path d="M16276 30055 c4 -16 11 -34 16 -40 7 -7 8 -1 3 15 -12 40 -26 59 -19
25z"/>
<path d="M15901 29914 c0 -11 3 -14 6 -6 3 7 2 16 -1 19 -3 4 -6 -2 -5 -13z"/>
<path d="M16341 29880 c0 -8 6 -28 14 -45 17 -39 18 -21 0 25 -7 19 -14 28
-14 20z"/>
<path d="M15902 29845 c0 -16 2 -22 5 -12 2 9 2 23 0 30 -3 6 -5 -1 -5 -18z"/>
<path d="M16370 29795 c0 -5 5 -17 10 -25 5 -8 10 -10 10 -5 0 6 -5 17 -10 25
-5 8 -10 11 -10 5z"/>
<path d="M15890 29731 c0 -23 2 -41 4 -41 8 0 12 71 4 76 -4 3 -8 -13 -8 -35z"/>
<path d="M16405 29698 c4 -13 11 -27 16 -33 5 -5 4 5 -2 23 -12 36 -24 44 -14
10z"/>
<path d="M16431 29640 c0 -8 4 -22 9 -30 12 -18 12 -2 0 25 -6 13 -9 15 -9 5z"/>
<path d="M15881 29614 c0 -11 3 -14 6 -6 3 7 2 16 -1 19 -3 4 -6 -2 -5 -13z"/>
<path d="M15881 29574 c0 -11 3 -14 6 -6 3 7 2 16 -1 19 -3 4 -6 -2 -5 -13z"/>
<path d="M16450 29585 c0 -5 5 -17 10 -25 5 -8 10 -10 10 -5 0 6 -5 17 -10 25
-5 8 -10 11 -10 5z"/>
<path d="M16476 29520 c3 -14 11 -32 16 -40 6 -10 7 -7 2 10 -3 14 -11 32 -16
40 -6 10 -7 7 -2 -10z"/>
<path d="M15872 29480 c0 -19 2 -27 5 -17 2 9 2 25 0 35 -3 9 -5 1 -5 -18z"/>
<path d="M16500 29455 c0 -5 5 -17 10 -25 5 -8 10 -10 10 -5 0 6 -5 17 -10 25
-5 8 -10 11 -10 5z"/>
<path d="M15862 29380 c0 -19 2 -27 5 -17 2 9 2 25 0 35 -3 9 -5 1 -5 -18z"/>
<path d="M16531 29380 c0 -14 28 -72 29 -59 0 4 -7 22 -15 40 -8 19 -14 27
-14 19z"/>
<path d="M15852 29295 c0 -16 2 -22 5 -12 2 9 2 23 0 30 -3 6 -5 -1 -5 -18z"/>
<path d="M16560 29305 c0 -5 5 -17 10 -25 5 -8 10 -10 10 -5 0 6 -5 17 -10 25
-5 8 -10 11 -10 5z"/>
<path d="M15841 29244 c0 -11 3 -14 6 -6 3 7 2 16 -1 19 -3 4 -6 -2 -5 -13z"/>
<path d="M16580 29255 c0 -5 5 -17 10 -25 5 -8 10 -10 10 -5 0 6 -5 17 -10 25
-5 8 -10 11 -10 5z"/>
<path d="M15832 29190 c0 -14 2 -19 5 -12 2 6 2 18 0 25 -3 6 -5 1 -5 -13z"/>
<path d="M16600 29205 c0 -5 5 -17 10 -25 5 -8 10 -10 10 -5 0 6 -5 17 -10 25
-5 8 -10 11 -10 5z"/>
<path d="M15821 29153 c-1 -6 -4 -20 -7 -30 -5 -17 -5 -17 6 0 6 10 9 23 6 30
-3 9 -5 9 -5 0z"/>
<path d="M16630 29135 c0 -5 5 -17 10 -25 5 -8 10 -10 10 -5 0 6 -5 17 -10 25
-5 8 -10 11 -10 5z"/>
<path d="M16653 29072 c0 -12 5 -22 9 -22 11 0 10 12 -2 30 -7 12 -9 10 -7 -8z"/>
<path d="M16680 29011 c0 -6 4 -13 10 -16 6 -3 7 1 4 9 -7 18 -14 21 -14 7z"/>
<path d="M15775 28999 c-4 -6 -5 -12 -2 -15 2 -3 7 2 10 11 7 17 1 20 -8 4z"/>
<path d="M15756 28955 c-9 -26 -7 -32 5 -12 6 10 9 21 6 23 -2 3 -7 -2 -11
-11z"/>
<path d="M16710 28945 c0 -5 5 -17 10 -25 5 -8 10 -10 10 -5 0 6 -5 17 -10 25
-5 8 -10 11 -10 5z"/>
<path d="M15726 28883 c-6 -14 -5 -15 5 -6 7 7 10 15 7 18 -3 3 -9 -2 -12 -12z"/>
<path d="M16730 28894 c0 -6 7 -19 16 -30 14 -18 14 -18 3 6 -14 31 -19 36
-19 24z"/>
<path d="M16755 28830 c3 -5 8 -10 11 -10 2 0 4 5 4 10 0 6 -5 10 -11 10 -5 0
-7 -4 -4 -10z"/>
<path d="M16771 28805 c0 -5 8 -26 19 -45 11 -19 19 -30 19 -25 0 6 -8 26 -19
45 -11 19 -19 31 -19 25z"/>
<path d="M15650 28740 c-6 -11 -8 -20 -6 -20 3 0 10 9 16 20 6 11 8 20 6 20
-3 0 -10 -9 -16 -20z"/>
<path d="M16811 28715 c0 -5 13 -35 29 -65 16 -30 29 -50 29 -45 0 6 -13 35
-29 65 -16 30 -29 51 -29 45z"/>
<path d="M16870 28575 c0 -8 4 -15 10 -15 5 0 7 7 4 15 -4 8 -8 15 -10 15 -2
0 -4 -7 -4 -15z"/>
<path d="M16890 28541 c0 -6 4 -13 10 -16 6 -3 7 1 4 9 -7 18 -14 21 -14 7z"/>
<path d="M16911 28505 c0 -5 11 -30 24 -55 13 -25 24 -40 24 -35 0 6 -11 30
-24 55 -13 25 -24 41 -24 35z"/>
<path d="M16970 28371 c0 -6 4 -13 10 -16 6 -3 7 1 4 9 -7 18 -14 21 -14 7z"/>
<path d="M17030 28251 c0 -6 4 -13 10 -16 6 -3 7 1 4 9 -7 18 -14 21 -14 7z"/>
<path d="M25085 28230 l-420 -5 -242 -315 c-461 -598 -1018 -1324 -1048 -1363
l-29 -40 79 6 c108 9 150 -3 165 -48 14 -41 4 -64 -43 -98 -53 -40 -160 -70
-282 -82 -33 -3 -68 -7 -78 -8 -22 -4 -43 -24 -34 -33 25 -25 438 -64 675 -64
228 0 308 -22 346 -95 17 -34 18 -45 9 -102 -23 -129 -108 -271 -247 -408
-181 -178 -402 -291 -636 -326 -107 -15 -298 -6 -405 20 -71 17 -256 82 -357
125 l-37 16 -263 -342 c-145 -188 -267 -347 -271 -355 -4 -7 -1 -23 9 -38 l16
-25 1317 0 1316 0 320 393 c176 215 590 723 920 1127 331 404 836 1023 1123
1375 l522 639 -27 22 c-26 20 -34 21 -647 27 -631 7 -999 6 -1751 -3z"/>
<path d="M17050 28211 c0 -6 4 -13 10 -16 6 -3 7 1 4 9 -7 18 -14 21 -14 7z"/>
<path d="M17090 28140 c6 -11 13 -20 16 -20 2 0 0 9 -6 20 -6 11 -13 20 -16
20 -2 0 0 -9 6 -20z"/>
<path d="M17110 28101 c0 -6 4 -13 10 -16 6 -3 7 1 4 9 -7 18 -14 21 -14 7z"/>
<path d="M17130 28061 c0 -6 4 -13 10 -16 6 -3 7 1 4 9 -7 18 -14 21 -14 7z"/>
<path d="M17150 28023 c0 -6 9 -21 21 -34 l20 -24 -17 30 c-24 39 -24 40 -24
28z"/>
<path d="M17220 27891 c0 -5 7 -15 17 -22 15 -13 15 -12 4 9 -12 23 -21 28
-21 13z"/>
<path d="M17250 27841 c0 -6 4 -13 10 -16 6 -3 7 1 4 9 -7 18 -14 21 -14 7z"/>
<path d="M17280 27790 c6 -11 13 -20 16 -20 2 0 0 9 -6 20 -6 11 -13 20 -16
20 -2 0 0 -9 6 -20z"/>
<path d="M50855 27790 c3 -5 8 -10 11 -10 2 0 4 5 4 10 0 6 -5 10 -11 10 -5 0
-7 -4 -4 -10z"/>
<path d="M17310 27740 c6 -11 13 -20 16 -20 2 0 0 9 -6 20 -6 11 -13 20 -16
20 -2 0 0 -9 6 -20z"/>
<path d="M50910 27757 c0 -3 24 -20 53 -38 28 -19 87 -62 129 -96 43 -34 73
-55 67 -45 -16 25 -249 193 -249 179z"/>
<path d="M17350 27670 c6 -11 13 -20 16 -20 2 0 0 9 -6 20 -6 11 -13 20 -16
20 -2 0 0 -9 6 -20z"/>
<path d="M17400 27590 c6 -11 13 -20 16 -20 2 0 0 9 -6 20 -6 11 -13 20 -16
20 -2 0 0 -9 6 -20z"/>
<path d="M17424 27544 c1 -9 10 -21 20 -26 17 -9 17 -9 1 16 -20 30 -24 32
-21 10z"/>
<path d="M51275 27460 c66 -67 93 -89 64 -53 -22 27 -122 123 -128 123 -3 0
26 -31 64 -70z"/>
<path d="M17460 27493 c0 -6 8 -17 18 -24 16 -13 16 -13 2 6 -8 11 -16 22 -17
24 -2 2 -3 0 -3 -6z"/>
<path d="M17507 27419 c10 -17 24 -36 32 -42 8 -7 2 7 -14 31 -32 49 -45 57
-18 11z"/>
<path d="M51380 27353 c1 -4 19 -28 42 -53 43 -47 34 -29 -14 28 -16 18 -28
29 -28 25z"/>
<path d="M17590 27300 c12 -16 24 -30 26 -30 3 0 -4 14 -16 30 -12 17 -24 30
-26 30 -3 0 4 -13 16 -30z"/>
<path d="M17640 27230 c11 -16 26 -33 32 -36 7 -4 -1 9 -16 29 -34 44 -46 50
-16 7z"/>
<path d="M51470 27236 c0 -2 7 -9 15 -16 13 -11 14 -10 9 4 -5 14 -24 23 -24
12z"/>
<path d="M51520 27173 c13 -18 25 -33 27 -33 8 0 -17 38 -33 51 -11 9 -9 2 6
-18z"/>
<path d="M17699 27152 c11 -16 28 -35 38 -43 9 -8 2 5 -17 29 -38 48 -52 57
-21 14z"/>
<path d="M17766 27065 c4 -8 11 -15 16 -15 6 0 5 6 -2 15 -7 8 -14 15 -16 15
-2 0 -1 -7 2 -15z"/>
<path d="M51602 27050 c8 -14 30 -51 48 -82 17 -32 34 -58 37 -58 7 0 -56 113
-78 140 l-21 25 14 -25z"/>
<path d="M17826 26998 c15 -20 30 -35 33 -32 3 2 -10 19 -28 37 l-34 32 29
-37z"/>
<path d="M17925 26890 c33 -33 62 -60 64 -60 3 0 -21 27 -54 60 -33 33 -62 60
-64 60 -3 0 21 -27 54 -60z"/>
<path d="M51727 26825 c9 -19 18 -33 21 -31 4 5 -26 66 -33 66 -3 0 3 -16 12
-35z"/>
<path d="M18000 26827 c0 -2 15 -16 33 -33 l32 -29 -29 33 c-28 30 -36 37 -36
29z"/>
<path d="M51751 26775 c0 -5 8 -26 19 -45 11 -19 19 -30 19 -25 0 6 -8 26 -19
45 -11 19 -19 31 -19 25z"/>
<path d="M18123 26720 c14 -11 28 -20 32 -20 4 0 -4 9 -18 20 -14 11 -28 20
-32 20 -4 0 4 -9 18 -20z"/>
<path d="M51796 26667 c3 -10 9 -15 12 -12 3 3 0 11 -7 18 -10 9 -11 8 -5 -6z"/>
<path d="M51836 26571 c10 -37 33 -88 33 -71 0 8 -9 33 -20 55 -10 22 -16 29
-13 16z"/>
<path d="M51871 26475 c1 -19 18 -51 18 -35 0 8 -4 22 -9 30 -5 8 -9 11 -9 5z"/>
<path d="M51890 26404 c0 -8 5 -12 10 -9 6 4 8 11 5 16 -9 14 -15 11 -15 -7z"/>
<path d="M52145 26380 c4 -6 11 -8 16 -5 14 9 11 15 -7 15 -8 0 -12 -5 -9 -10z"/>
<path d="M52113 26358 c-13 -6 -23 -15 -23 -20 0 -5 11 -1 25 8 37 24 35 30
-2 12z"/>
<path d="M51916 26325 c8 -37 14 -45 14 -19 0 10 -5 26 -10 34 -8 11 -9 7 -4
-15z"/>
<path d="M52007 26294 c-27 -14 -55 -23 -63 -20 -8 3 -14 -1 -14 -9 0 -8 2
-15 5 -15 10 0 125 60 125 65 0 7 1 7 -53 -21z"/>
</g>
</svg>
